<?xml version="1.0" encoding="utf-8"?>
<svg viewBox="0 0 2900 500" width="2900" height="500" xmlns="http://www.w3.org/2000/svg">
  <defs>
    <radialGradient id="gradient-2" gradientUnits="userSpaceOnUse" cx="152.286" cy="126.898" r="330" gradientTransform="matrix(0.638467, -1.091841, 1.097297, 0.641658, 52.727183, 218.434182)">
      <stop offset="0" style="stop-color: rgb(152, 192, 92);"/>
      <stop offset="1" style="stop-color: rgb(103, 172, 92);"/>
    </radialGradient>
    <linearGradient id="gradient-3" gradientUnits="userSpaceOnUse" x1="330" y1="0" x2="330" y2="660" gradientTransform="matrix(0.980745, -0.195296, 0.195753, 0.983035, -58.663244, 70.697931)">
      <stop offset="0" style="stop-color: rgb(224, 236, 204);"/>
      <stop offset="1" style="stop-color: rgb(152, 192, 92);"/>
    </linearGradient>
  </defs>
  <g transform="matrix(0.96, 0, 0, 0.96, 824.651794, 760.577515)">
    <path d="M -69.869 -308.359 C -126.122 -308.359 -169.872 -326.589 -201.119 -363.049 C -232.372 -399.509 -247.999 -449.822 -247.999 -513.989 C -247.999 -556.902 -240.812 -594.402 -226.439 -626.489 C -212.059 -658.569 -191.642 -683.256 -165.189 -700.549 C -138.729 -717.842 -107.999 -726.489 -72.999 -726.489 C -53.832 -726.489 -35.396 -723.989 -17.689 -718.989 C 0.024 -713.989 15.131 -708.362 27.631 -702.109 C 40.131 -695.862 46.381 -692.529 46.381 -692.109 L 40.751 -662.109 C 40.751 -662.529 34.711 -665.656 22.631 -671.489 C 10.544 -677.322 -3.519 -682.739 -19.559 -687.739 C -35.599 -692.739 -51.746 -695.239 -67.999 -695.239 C -108.412 -695.239 -140.079 -679.926 -162.999 -649.299 C -185.912 -618.672 -197.369 -573.986 -197.369 -515.239 C -197.369 -457.319 -185.702 -413.569 -162.369 -383.989 C -139.036 -354.402 -106.329 -339.609 -64.249 -339.609 C -42.162 -339.609 -22.786 -344.192 -6.119 -353.359 C 10.548 -362.526 23.774 -372.319 33.561 -382.739 C 43.354 -393.152 48.251 -399.192 48.251 -400.859 L 65.751 -380.859 C 65.751 -378.779 60.334 -371.592 49.501 -359.299 C 38.668 -347.006 23.148 -335.442 2.941 -324.609 C -17.266 -313.776 -41.536 -308.359 -69.869 -308.359 ZM 234.501 -308.359 C 191.168 -308.359 158.148 -322.526 135.441 -350.859 C 112.734 -379.192 101.381 -419.192 101.381 -470.859 C 101.381 -522.526 112.734 -562.526 135.441 -590.859 C 158.148 -619.192 191.168 -633.359 234.501 -633.359 C 277.834 -633.359 310.854 -619.192 333.561 -590.859 C 356.274 -562.526 367.631 -522.526 367.631 -470.859 C 367.631 -419.612 356.068 -379.716 332.941 -351.169 C 309.814 -322.629 277.001 -308.359 234.501 -308.359 Z M 234.501 -335.859 C 263.668 -335.859 285.128 -347.006 298.881 -369.299 C 312.628 -391.592 319.501 -425.446 319.501 -470.859 C 319.501 -515.859 312.628 -549.609 298.881 -572.109 C 285.128 -594.609 263.668 -605.859 234.501 -605.859 C 205.334 -605.859 183.878 -594.712 170.131 -572.419 C 156.378 -550.132 149.501 -516.279 149.501 -470.859 C 149.501 -425.446 156.378 -391.592 170.131 -369.299 C 183.878 -347.006 205.334 -335.859 234.501 -335.859 ZM 547.626 -314.609 L 506.376 -314.609 L 399.506 -627.109 L 453.256 -627.109 L 534.506 -363.989 L 620.756 -627.109 L 655.126 -627.109 L 547.626 -314.609 ZM 732.631 -690.239 C 725.131 -690.239 719.088 -692.529 714.501 -697.109 C 709.088 -702.529 706.381 -709.196 706.381 -717.109 C 706.381 -725.029 709.088 -731.696 714.501 -737.109 C 719.088 -741.696 725.131 -743.989 732.631 -743.989 C 740.544 -743.989 746.794 -741.906 751.381 -737.739 C 756.381 -732.319 758.881 -725.442 758.881 -717.109 C 758.881 -709.609 756.381 -702.942 751.381 -697.109 C 745.548 -692.529 739.298 -690.239 732.631 -690.239 Z M 755.131 -314.609 L 709.501 -314.609 L 709.501 -627.109 L 755.131 -627.109 L 755.131 -314.609 ZM 950.751 -308.359 C 912.838 -308.359 882.421 -321.902 859.501 -348.989 C 836.588 -376.069 825.131 -413.776 825.131 -462.109 C 825.131 -514.196 836.274 -555.759 858.561 -586.799 C 880.854 -617.839 912.211 -633.359 952.631 -633.359 C 969.711 -633.359 984.084 -631.172 995.751 -626.799 C 1007.418 -622.426 1016.378 -617.632 1022.631 -612.419 C 1028.878 -607.212 1032.001 -604.192 1032.001 -603.359 L 1032.631 -603.359 L 1032.631 -782.109 L 1077.631 -784.609 L 1077.631 -314.609 L 1038.881 -314.609 L 1033.881 -351.489 C 1029.294 -342.322 1020.334 -332.842 1007.001 -323.049 C 993.668 -313.256 974.918 -308.359 950.751 -308.359 Z M 960.751 -338.989 C 975.751 -338.989 988.668 -342.216 999.501 -348.669 C 1010.334 -355.129 1018.564 -362.109 1024.191 -369.609 C 1029.818 -377.109 1032.631 -381.486 1032.631 -382.739 L 1032.631 -574.609 C 1032.631 -575.442 1029.818 -578.359 1024.191 -583.359 C 1018.564 -588.359 1010.854 -592.942 1001.061 -597.109 C 991.274 -601.276 979.714 -603.359 966.381 -603.359 C 934.294 -603.359 910.751 -591.589 895.751 -568.049 C 880.751 -544.509 873.251 -509.612 873.251 -463.359 C 873.251 -419.612 880.648 -387.946 895.441 -368.359 C 910.234 -348.779 932.004 -338.989 960.751 -338.989 Z" transform="matrix(1, 0, 0, 1, 0, 0)" style="fill: rgb(221, 221, 221); white-space: pre;"/>
    <path d="M 1305.08 -736.334 C 1333.833 -736.334 1356.543 -726.854 1373.21 -707.894 C 1389.877 -688.934 1398.21 -664.037 1398.21 -633.204 C 1398.21 -606.124 1393.52 -580.394 1384.14 -556.014 C 1374.767 -531.641 1359.977 -504.247 1339.77 -473.834 C 1319.563 -443.414 1287.377 -398.831 1243.21 -340.084 L 1407.58 -340.084 L 1403.21 -314.454 L 1211.96 -314.454 L 1211.96 -339.454 C 1257.373 -399.041 1290.707 -444.977 1311.96 -477.264 C 1333.207 -509.557 1348.1 -537.164 1356.64 -560.084 C 1365.187 -582.997 1369.46 -607.164 1369.46 -632.584 C 1369.46 -657.584 1363.627 -677.061 1351.96 -691.014 C 1340.293 -704.974 1324.25 -711.954 1303.83 -711.954 C 1287.997 -711.954 1273.933 -707.997 1261.64 -700.084 C 1249.353 -692.164 1237.583 -680.287 1226.33 -664.454 L 1206.96 -678.204 C 1221.127 -698.204 1236.02 -712.891 1251.64 -722.264 C 1267.267 -731.644 1285.08 -736.334 1305.08 -736.334 ZM 1580.085 -736.334 C 1615.085 -736.334 1641.542 -718.834 1659.455 -683.834 C 1677.375 -648.834 1686.335 -594.667 1686.335 -521.334 C 1686.335 -448.414 1677.375 -394.557 1659.455 -359.764 C 1641.542 -324.971 1615.085 -307.574 1580.085 -307.574 C 1508.832 -307.574 1473.205 -379.244 1473.205 -522.584 C 1473.205 -595.497 1482.165 -649.351 1500.085 -684.144 C 1517.998 -718.937 1544.665 -736.334 1580.085 -736.334 Z M 1580.085 -711.954 C 1554.665 -711.954 1535.392 -696.954 1522.265 -666.954 C 1509.145 -636.954 1502.585 -588.831 1502.585 -522.584 C 1502.585 -455.497 1509.042 -406.954 1521.955 -376.954 C 1534.875 -346.954 1554.252 -331.954 1580.085 -331.954 C 1605.918 -331.954 1625.188 -346.851 1637.895 -376.644 C 1650.602 -406.437 1656.955 -454.667 1656.955 -521.334 C 1656.955 -588.834 1650.602 -637.477 1637.895 -667.264 C 1625.188 -697.057 1605.918 -711.954 1580.085 -711.954 ZM 1827.585 -729.454 L 1851.335 -729.454 L 1851.335 -314.454 L 1823.835 -314.454 L 1823.835 -696.954 L 1740.085 -633.204 L 1726.335 -653.204 L 1827.585 -729.454 ZM 2047.585 -736.334 C 2082.585 -736.334 2108.522 -722.167 2125.395 -693.834 C 2142.268 -665.501 2150.705 -623.207 2150.705 -566.954 C 2150.705 -514.454 2144.352 -471.331 2131.645 -437.584 C 2118.938 -403.831 2100.292 -376.641 2075.705 -356.014 C 2051.125 -335.394 2019.252 -317.791 1980.085 -303.204 L 1972.585 -325.084 C 2020.498 -343.417 2056.748 -367.894 2081.335 -398.514 C 2105.915 -429.141 2119.455 -472.371 2121.955 -528.204 C 2111.955 -509.871 2099.872 -495.807 2085.705 -486.014 C 2071.538 -476.227 2055.915 -471.334 2038.835 -471.334 C 2020.915 -471.334 2004.768 -476.437 1990.395 -486.644 C 1976.022 -496.851 1964.772 -511.747 1956.645 -531.334 C 1948.518 -550.914 1944.455 -574.037 1944.455 -600.704 C 1944.455 -644.457 1953.935 -678.001 1972.895 -701.334 C 1991.855 -724.667 2016.752 -736.334 2047.585 -736.334 Z M 2042.585 -495.084 C 2058.832 -495.084 2073.415 -500.501 2086.335 -511.334 C 2099.248 -522.167 2111.332 -538.417 2122.585 -560.084 C 2122.585 -613.417 2116.752 -652.167 2105.085 -676.334 C 2093.418 -700.501 2074.458 -712.584 2048.205 -712.584 C 2024.458 -712.584 2006.125 -703.311 1993.205 -684.764 C 1980.292 -666.224 1973.835 -637.997 1973.835 -600.084 C 1973.835 -565.917 1979.978 -539.874 1992.265 -521.954 C 2004.558 -504.041 2021.332 -495.084 2042.585 -495.084 Z" transform="matrix(1, 0, 0, 1, 0, 0)" style="fill: rgb(135, 159, 103); white-space: pre;"/>
    <g transform="matrix(0.749947, 0, 0, 0.749947, -842.67041, -779.774597)">
      <g>
        <circle style="stroke-width: 20px; fill: url(#gradient-2); stroke: url(#gradient-3);" cx="330" cy="330" r="330"/>
      </g>
      <g transform="matrix(0.480346, 0.148693, -0.148693, 0.480346, 112.983086, -35.106113)">
        <g id="g-5" transform="matrix(1, 0, 0, 1, -22.85598, 5.981693)">
          <path opacity="1.00" d=" M 558.40 601.53 C 571.57 600.40 586.00 603.75 595.15 613.85 C 605.39 624.38 607.48 640.51 604.31 654.35 C 601.28 667.74 590.28 678.77 576.98 682.05 C 561.93 685.93 544.09 683.62 532.74 672.26 C 520.18 659.97 518.53 639.71 525.06 624.03 C 530.69 610.91 544.33 602.36 558.40 601.53 Z" style="fill: rgb(147, 190, 92);"/>
        </g>
        <g id="g-6" transform="matrix(1, 0, 0, 1, -22.85598, 5.981693)">
          <path opacity="1.00" d=" M 600.03 38.06 C 627.34 18.91 666.26 18.49 694.03 36.93 C 715.20 50.34 729.93 73.82 731.83 98.91 C 734.16 122.21 724.86 146.72 706.73 161.76 C 703.69 164.40 700.03 166.25 697.22 169.15 C 671.82 195.52 660.59 234.96 669.29 270.65 C 672.26 283.74 677.35 296.29 683.78 308.05 C 688.79 315.99 694.08 325.99 689.29 335.31 C 683.25 346.30 670.57 350.95 659.15 354.14 C 644.98 358.15 629.54 358.63 615.61 353.40 C 606.44 349.83 596.60 345.44 591.33 336.65 C 588.60 332.39 588.50 326.61 591.38 322.39 C 595.03 316.38 602.53 314.78 607.10 309.68 C 615.99 302.69 618.24 290.70 618.64 280.02 C 618.48 266.40 615.98 252.88 612.16 239.84 C 603.83 210.17 590.91 182.06 577.73 154.29 C 576.05 150.31 571.70 147.80 571.73 143.10 C 567.51 129.16 562.43 114.87 563.82 100.04 C 565.41 75.26 579.31 51.69 600.03 38.06 Z" style="fill: rgb(234, 254, 203);"/>
          <path opacity="1.00" d=" M 856.80 632.79 C 863.12 623.89 871.08 614.71 882.16 612.10 C 887.96 610.61 893.29 613.93 897.68 617.31 C 921.45 634.38 945.81 652.98 975.14 658.91 C 991.21 662.59 1008.52 661.16 1023.70 654.72 C 1045.92 641.52 1074.08 638.96 1098.41 647.53 C 1127.47 657.76 1149.30 684.22 1155.92 714.05 C 1164.89 746.74 1146.70 782.50 1118.37 799.42 C 1082.68 821.40 1029.84 813.81 1005.13 778.87 C 1001.37 774.06 999.46 768.11 995.73 763.27 C 976.56 738.67 954.70 715.55 927.95 699.11 C 915.49 691.85 901.68 685.67 886.98 685.79 C 880.96 685.34 875.28 687.66 869.38 688.22 C 860.31 687.97 850.58 683.26 848.01 673.92 C 844.22 659.88 848.22 644.34 856.80 632.79 Z" style="fill: rgb(234, 254, 203);"/>
          <path opacity="1.00" d=" M 626.13 794.17 C 634.73 783.32 648.96 779.05 662.17 777.31 C 676.94 776.03 692.27 776.53 706.31 781.73 C 710.97 783.54 716.07 786.77 716.82 792.16 C 717.79 797.62 713.32 801.70 710.80 806.02 C 711.32 806.01 712.37 806.01 712.89 806.01 C 706.91 808.15 707.54 815.77 706.65 820.92 C 704.91 848.86 713.04 876.08 718.65 903.18 C 726.34 939.76 736.30 976.35 736.43 1013.99 C 736.54 1038.66 724.71 1063.12 705.13 1078.16 C 686.05 1093.56 660.05 1099.84 636.03 1095.09 C 609.17 1090.35 585.60 1071.38 574.48 1046.57 C 559.06 1012.75 571.23 968.87 602.44 948.50 C 612.87 942.38 622.99 935.76 632.99 928.98 C 642.46 922.39 650.86 913.41 654.30 902.19 C 657.55 891.04 655.77 879.18 652.72 868.21 C 646.75 848.45 636.74 830.15 625.47 812.96 C 621.45 807.38 621.73 799.44 626.13 794.17 Z" style="fill: rgb(234, 254, 203);"/>
        </g>
        <g id="g-7" transform="matrix(1, 0, 0, 1, -22.85598, 5.981693)">
          <path opacity="1.00" d=" M 307.18 160.18 C 339.71 138.78 386.61 144.34 413.30 172.70 C 434.42 193.59 442.65 226.82 432.88 254.96 C 430.93 275.00 437.16 294.91 446.49 312.44 C 454.10 326.43 464.23 339.60 478.06 347.91 C 485.03 351.86 493.54 355.29 501.54 353.48 C 532.89 331.38 569.07 315.43 607.10 309.68 C 602.53 314.78 595.03 316.38 591.38 322.39 C 588.50 326.61 588.60 332.39 591.33 336.65 C 596.60 345.44 606.44 349.83 615.61 353.40 C 629.54 358.63 644.98 358.15 659.15 354.14 C 670.57 350.95 683.25 346.30 689.29 335.31 C 694.08 325.99 688.79 315.99 683.78 308.05 C 712.17 311.66 739.75 320.58 765.35 333.30 C 786.06 344.12 805.53 357.42 822.65 373.36 C 847.54 396.36 867.79 424.40 881.67 455.33 C 882.32 456.59 882.86 458.16 884.40 458.61 C 904.61 466.94 927.63 466.30 948.38 460.31 C 968.68 453.53 988.41 440.48 997.63 420.55 C 1005.13 408.68 1017.47 400.25 1031.08 397.02 C 1055.54 391.15 1084.29 397.23 1100.93 417.05 C 1113.30 431.41 1114.83 452.70 1107.90 469.87 C 1100.29 488.09 1084.15 502.86 1065.01 508.07 C 1050.27 511.58 1034.69 511.40 1019.89 508.40 C 991.78 504.32 962.78 505.39 935.19 512.25 C 924.10 515.42 912.22 518.51 903.70 526.77 C 902.30 527.80 902.35 529.52 902.58 531.07 C 905.91 559.81 904.27 589.13 897.68 617.31 C 893.29 613.93 887.96 610.61 882.16 612.10 C 871.08 614.71 863.12 623.89 856.80 632.79 C 848.22 644.34 844.22 659.88 848.01 673.92 C 850.58 683.26 860.31 687.97 869.38 688.22 C 862.78 700.36 854.37 711.38 845.95 722.29 C 822.94 749.54 794.54 772.20 762.57 788.05 C 746.63 795.50 730.14 802.44 712.89 806.01 C 712.37 806.01 711.32 806.01 710.80 806.02 C 713.32 801.70 717.79 797.62 716.82 792.16 C 716.07 786.77 710.97 783.54 706.31 781.73 C 692.27 776.53 676.94 776.03 662.17 777.31 C 648.96 779.05 634.73 783.32 626.13 794.17 C 621.73 799.44 621.45 807.38 625.47 812.96 C 605.90 811.78 587.05 806.05 568.16 801.49 C 566.20 800.02 563.97 798.99 561.64 798.28 C 528.02 786.30 497.82 766.13 471.82 741.87 C 471.87 742.37 471.96 743.36 472.00 743.86 C 470.06 740.88 468.35 737.71 465.80 735.19 C 456.67 725.72 448.39 715.45 440.91 704.64 C 432.11 704.30 423.43 706.49 415.14 709.23 C 389.40 718.05 367.98 735.99 350.05 755.99 C 343.17 763.57 337.70 772.28 330.82 779.86 C 317.20 795.32 297.71 805.88 276.97 807.11 C 245.46 810.91 212.53 795.04 196.14 767.83 C 179.31 741.89 179.82 705.85 197.37 680.39 C 216.88 649.94 257.41 635.26 291.92 645.96 C 299.28 648.12 305.48 652.96 310.32 658.79 C 331.66 666.30 355.31 667.25 377.36 662.32 C 388.32 659.66 398.84 654.64 407.12 646.89 C 407.21 642.39 408.42 637.72 406.62 633.39 C 403.03 622.68 401.36 611.48 398.42 600.61 C 398.21 597.75 398.14 594.88 397.82 592.04 C 392.70 552.89 397.10 512.56 410.28 475.35 C 412.33 468.99 415.66 463.04 416.74 456.38 C 421.54 448.53 425.57 440.18 430.24 432.22 C 433.99 427.44 429.52 421.60 430.60 416.14 C 427.12 393.42 411.53 374.97 396.11 358.90 C 374.49 337.27 349.02 319.34 320.96 307.07 C 292.61 294.88 270.42 267.16 268.44 235.86 C 265.58 205.88 281.74 175.84 307.18 160.18 M 595.37 395.45 C 571.02 398.29 548.21 412.26 534.78 432.79 C 516.88 459.06 516.90 495.93 534.86 522.17 C 552.38 549.17 586.19 564.11 617.97 559.13 C 650.34 554.81 679.07 530.10 687.33 498.37 C 693.41 476.22 689.31 451.60 676.48 432.56 C 659.24 406.24 626.56 391.31 595.37 395.45 M 558.40 601.53 C 544.33 602.36 530.69 610.91 525.06 624.03 C 518.53 639.71 520.18 659.97 532.74 672.26 C 544.09 683.62 561.93 685.93 576.98 682.05 C 590.28 678.77 601.28 667.74 604.31 654.35 C 607.48 640.51 605.39 624.38 595.15 613.85 C 586.00 603.75 571.57 600.40 558.40 601.53 M 708.37 605.48 C 676.27 606.70 647.32 635.50 647.88 667.99 C 648.07 700.92 678.36 729.49 711.00 729.28 C 744.10 729.72 774.88 700.41 774.47 667.00 C 774.47 632.94 742.15 603.50 708.37 605.48 Z" style="fill: rgb(223, 244, 190);"/>
        </g>
        <g id="g-8" transform="matrix(1, 0, 0, 1, -22.85598, 5.981693)">
          <path opacity="1.00" d=" M 801.58 210.61 C 823.96 189.75 858.09 182.74 886.85 193.24 C 909.27 200.73 927.99 218.25 936.94 240.12 C 949.92 269.75 941.98 306.49 918.84 328.85 C 903.30 344.75 881.07 353.25 858.98 353.46 C 850.42 353.51 841.22 352.96 833.65 357.70 C 827.96 361.12 824.88 367.36 822.65 373.36 C 805.53 357.42 786.06 344.12 765.35 333.30 C 774.01 332.85 782.28 326.11 782.19 317.00 C 784.00 302.57 773.88 290.27 774.50 275.99 C 773.44 251.65 783.18 226.78 801.58 210.61 Z" style="fill: rgb(190, 226, 135);"/>
          <path opacity="1.00" d=" M 155.34 460.37 C 168.01 444.85 187.90 435.16 208.07 436.18 C 221.57 436.85 235.53 440.96 245.64 450.30 C 248.86 453.09 250.88 457.07 254.55 459.39 C 274.14 472.95 297.07 481.01 320.32 485.61 C 341.97 489.32 365.24 489.82 385.67 480.68 C 398.08 475.74 408.68 466.95 416.74 456.38 C 415.66 463.04 412.33 468.99 410.28 475.35 C 397.10 512.56 392.70 552.89 397.82 592.04 C 398.14 594.88 398.21 597.75 398.42 600.61 C 395.55 596.56 394.82 591.74 394.04 587.00 C 386.21 565.18 363.53 553.84 342.79 547.23 C 312.32 538.46 278.87 537.39 248.59 547.55 C 236.29 552.53 224.17 558.85 210.65 559.57 C 182.53 562.68 154.00 543.77 144.94 517.12 C 137.44 498.11 142.72 475.93 155.34 460.37 Z" style="fill: rgb(190, 226, 135);"/>
          <path opacity="1.00" d=" M 762.57 788.05 C 794.54 772.20 822.94 749.54 845.95 722.29 C 844.15 744.32 840.01 766.59 843.38 788.69 C 844.74 797.11 847.93 806.84 856.41 810.52 C 863.08 812.56 870.23 811.57 877.02 813.03 C 905.29 817.32 930.54 837.18 941.30 863.68 C 950.56 885.65 949.21 911.82 937.72 932.72 C 921.31 964.41 883.22 982.18 848.32 975.61 C 812.74 969.98 782.65 939.12 779.12 903.09 C 777.34 876.85 783.06 850.97 785.21 824.94 C 785.97 816.01 785.88 806.20 780.33 798.67 C 776.16 792.80 769.15 790.18 762.57 788.05 Z" style="fill: rgb(190, 226, 135);"/>
          <path opacity="1.00" d=" M 471.82 741.87 C 497.82 766.13 528.02 786.30 561.64 798.28 C 563.97 798.99 566.20 800.02 568.16 801.49 C 544.87 805.49 522.78 817.38 507.96 835.97 C 488.72 859.56 480.75 890.29 478.26 920.10 C 476.02 935.50 466.78 949.16 454.83 958.81 C 438.92 972.05 415.99 976.35 396.41 969.56 C 379.45 963.77 364.79 950.87 357.70 934.32 C 347.02 911.78 353.36 882.48 372.42 866.40 C 380.92 858.95 391.82 854.22 403.11 853.42 C 406.52 853.20 409.87 852.37 413.00 850.99 C 430.68 844.15 447.42 834.31 460.96 820.92 C 471.64 810.67 479.03 796.76 480.36 781.92 C 481.34 768.74 477.75 755.62 472.00 743.86 C 471.96 743.36 471.87 742.37 471.82 741.87 Z" style="fill: rgb(190, 226, 135);"/>
        </g>
        <g id="g-9" transform="matrix(1, 0, 0, 1, -22.85598, 5.981693)">
          <path opacity="1.00" d=" M 595.37 395.45 C 626.56 391.31 659.24 406.24 676.48 432.56 C 689.31 451.60 693.41 476.22 687.33 498.37 C 679.07 530.10 650.34 554.81 617.97 559.13 C 586.19 564.11 552.38 549.17 534.86 522.17 C 516.90 495.93 516.88 459.06 534.78 432.79 C 548.21 412.26 571.02 398.29 595.37 395.45 Z" style="fill: rgb(119, 179, 92);"/>
        </g>
        <g id="g-10" transform="matrix(1, 0, 0, 1, -22.85598, 5.981693)">
          <path opacity="1.00" d=" M 708.37 605.48 C 742.15 603.50 774.47 632.94 774.47 667.00 C 774.88 700.41 744.10 729.72 711.00 729.28 C 678.36 729.49 648.07 700.92 647.88 667.99 C 647.32 635.50 676.27 606.70 708.37 605.48 Z" style="fill: rgb(147, 190, 92);"/>
        </g>
      </g>
    </g>
  </g>
</svg>